Coordinates
version=1
nRows=8
nColumns=40
inDegrees=yes

Units are S.I. units (second, meters, Newtons, ...)
If the header above contains a line with 'inDegrees', this indicates whether rotational values are in degrees (yes) or radians (no).

endheader
time	pelvis_tilt	pelvis_list	pelvis_rotation	pelvis_tx	pelvis_ty	pelvis_tz	hip_flexion_r	hip_adduction_r	hip_rotation_r	knee_angle_r	knee_angle_r_beta	ankle_angle_r	subtalar_angle_r	mtp_angle_r	hip_flexion_l	hip_adduction_l	hip_rotation_l	knee_angle_l	knee_angle_l_beta	ankle_angle_l	subtalar_angle_l	mtp_angle_l	lumbar_extension	lumbar_bending	lumbar_rotation	arm_flex_r	arm_add_r	arm_rot_r	elbow_flex_r	pro_sup_r	wrist_flex_r	wrist_dev_r	arm_flex_l	arm_add_l	arm_rot_l	elbow_flex_l	pro_sup_l	wrist_flex_l	wrist_dev_l
      0.00000000	    -80.37166241	     62.22828121	    -89.96645866	      0.84389333	      0.60064809	     -0.30216500	     50.10707440	    -10.67607113	      0.00000000	     60.15807766	      1.04995653	     -4.16080074	      0.00000000	      0.00000000	     50.10707440	    -10.67607113	      0.00000000	     60.15807766	      1.04995653	     -4.16080074	      0.00000000	      0.00000000	     47.28974254	     89.86445093	    -74.56870209	      2.99056563	    -28.66579730	     28.55741386	     92.30527537	     87.28940438	      0.00000000	      0.00000000	     -1.13644073	    -27.30879362	     20.20519681	     82.82315363	     89.07265553	      0.00000000	      0.00000000
      0.00500000	    -80.36747425	     62.24155532	    -89.96641606	      0.84394620	      0.60065364	     -0.30218560	     50.10623052	    -10.67568052	      0.00000000	     60.15805735	      1.04995617	     -4.16143402	      0.00000000	      0.00000000	     50.10623052	    -10.67568052	      0.00000000	     60.15805735	      1.04995617	     -4.16143402	      0.00000000	      0.00000000	     47.31099451	     89.86515644	    -74.57923770	      2.99278194	    -28.65626437	     28.55539234	     92.28568204	     87.28789852	      0.00000000	      0.00000000	     -1.14206308	    -27.32373926	     20.20541761	     82.83879795	     89.07252423	      0.00000000	      0.00000000
      0.01000000	    -80.37354396	     62.25130489	    -89.96639261	      0.84392787	      0.60067328	     -0.30216477	     50.10537690	    -10.67528556	      0.00000000	     60.15803681	      1.04995581	     -4.16207425	      0.00000000	      0.00000000	     50.10537690	    -10.67528556	      0.00000000	     60.15803681	      1.04995581	     -4.16207425	      0.00000000	      0.00000000	     47.33585172	     89.86540153	    -74.58592471	      2.99096966	    -28.62531465	     28.58618922	     92.27990954	     87.29941120	      0.00000000	      0.00000000	     -1.15249912	    -27.33657681	     20.22570636	     82.85595575	     89.07308840	      0.00000000	      0.00000000
      0.01500000	    -80.58098336	     62.25775648	    -89.96661249	      0.84257215	      0.60121942	     -0.30195499	     50.10336157	    -10.67435320	      0.00000000	     60.15798833	      1.04995497	     -4.16358532	      0.00000000	      0.00000000	     50.10336157	    -10.67435320	      0.00000000	     60.15798833	      1.04995497	     -4.16358532	      0.00000000	      0.00000000	     47.35230966	     89.88126450	    -74.58830969	      2.80355084	    -28.70912762	     28.63250541	     92.17972375	     87.33649081	      0.00000000	      0.00000000	     -1.28770102	    -27.23665811	     20.26269796	     82.81351847	     89.05739755	      0.00000000	      0.00000000
      0.02000000	    -80.58344508	     62.28197901	    -89.96645174	      0.84258410	      0.60126230	     -0.30203908	     50.10264461	    -10.67402198	      0.00000000	     60.15797108	      1.04995467	     -4.16412188	      0.00000000	      0.00000000	     50.10264461	    -10.67402198	      0.00000000	     60.15797108	      1.04995467	     -4.16412188	      0.00000000	      0.00000000	     47.36785279	     89.88027031	    -74.60185805	      2.81650252	    -28.67386548	     28.62277567	     92.17130764	     87.34601614	      0.00000000	      0.00000000	     -1.29956344	    -27.24669932	     20.26640993	     82.82377446	     89.05706431	      0.00000000	      0.00000000
      0.02500000	    -80.58646614	     62.30173915	    -89.96639683	      0.84258343	      0.60128014	     -0.30207822	     50.10191855	    -10.67368666	      0.00000000	     60.15795360	      1.04995436	     -4.16466500	      0.00000000	      0.00000000	     50.10191855	    -10.67368666	      0.00000000	     60.15795360	      1.04995436	     -4.16466500	      0.00000000	      0.00000000	     47.38914515	     89.88029348	    -74.60944893	      2.82291794	    -28.66297063	     28.61616064	     92.15873822	     87.35496236	      0.00000000	      0.00000000	     -1.30600321	    -27.24589354	     20.26828062	     82.83619806	     89.05592869	      0.00000000	      0.00000000
      0.03000000	    -80.59186604	     62.31622104	    -89.96639149	      0.84259486	      0.60128769	     -0.30209398	     50.10118273	    -10.67334695	      0.00000000	     60.15793589	      1.04995405	     -4.16521516	      0.00000000	      0.00000000	     50.10118273	    -10.67334695	      0.00000000	     60.15793589	      1.04995405	     -4.16521516	      0.00000000	      0.00000000	     47.41021996	     89.88000315	    -74.61716827	      2.82470815	    -28.66286872	     28.61342809	     92.15175149	     87.36419493	      0.00000000	      0.00000000	     -1.30830256	    -27.23893963	     20.26665809	     82.84387009	     89.05416945	      0.00000000	      0.00000000
      0.03500000	    -80.59688325	     62.33175893	    -89.96634638	      0.84259121	      0.60129954	     -0.30212026	     50.10045238	    -10.67300989	      0.00000000	     60.15791831	      1.04995375	     -4.16576093	      0.00000000	      0.00000000	     50.10045238	    -10.67300989	      0.00000000	     60.15791831	      1.04995375	     -4.16576093	      0.00000000	      0.00000000	     47.43163828	     89.87988303	    -74.62435058	      2.82324914	    -28.64913686	     28.61284243	     92.14531321	     87.37291688	      0.00000000	      0.00000000	     -1.31292970	    -27.24194413	     20.26218809	     82.84732669	     89.05295021	      0.00000000	      0.00000000
